<svg width="191" height="113" viewBox="0 0 191 113" fill="none" xmlns="http://www.w3.org/2000/svg">
<g filter="url(#filter0_d_884_38)">
<g clip-path="url(#clip0_884_38)">
<rect x="36.5" y="36.5" width="118" height="40" rx="20" fill="white" fill-opacity="0.1" shape-rendering="crispEdges"/>
<g filter="url(#filter1_f_884_38)">
<path d="M95.5 56.5L124.945 76.1875H66.0551L95.5 56.5Z" fill="#2DA355"/>
</g>
<g filter="url(#filter2_f_884_38)">
<path d="M95.5 56.5L228.002 76.1154H-37.0019L95.5 56.5Z" fill="#2DA355"/>
</g>
<g clip-path="url(#clip1_884_38)">
<mask id="mask0_884_38" style="mask-type:luminance" maskUnits="userSpaceOnUse" x="58" y="48" width="17" height="17">
<path d="M74.5 48.5H58.5V64.5H74.5V48.5Z" fill="white"/>
</mask>
<g mask="url(#mask0_884_38)">
<path d="M69.8474 62.6931L67.5274 61.5331C66.8808 61.2131 66.1274 61.2131 65.4808 61.5331L63.1608 62.6931C61.1674 63.6865 59.0674 61.5465 60.1074 59.5798L60.6541 58.5531C60.7274 58.4131 60.8474 58.2998 60.9941 58.2331L69.4207 54.4331C69.7674 54.2798 70.1741 54.4198 70.3474 54.7531L72.8874 59.5798C73.9274 61.5465 71.8341 63.6865 69.8474 62.6931Z" fill="white"/>
<path d="M68.9003 53.6264L63.3803 56.113C62.7603 56.393 62.1336 55.7264 62.4536 55.1264L64.4803 51.2797C65.3403 49.6464 67.6737 49.6464 68.5337 51.2797L69.247 52.6397C69.4337 53.0064 69.2737 53.4597 68.9003 53.6264Z" fill="#2DA355"/>
</g>
</g>
<path d="M81.578 62.5V52.07H85.974C86.6273 52.07 87.192 52.1867 87.668 52.42C88.144 52.644 88.508 52.9707 88.76 53.4C89.012 53.82 89.138 54.3193 89.138 54.898C89.138 55.402 89.0073 55.864 88.746 56.284C88.494 56.6947 88.0973 57.0213 87.556 57.264V56.564C88.032 56.7507 88.4193 56.9887 88.718 57.278C89.0167 57.558 89.2313 57.8753 89.362 58.23C89.502 58.5847 89.572 58.958 89.572 59.35C89.572 60.33 89.25 61.1 88.606 61.66C87.9713 62.22 87.0987 62.5 85.988 62.5H81.578ZM83.23 61.03H86.114C86.6647 61.03 87.1033 60.8807 87.43 60.582C87.7567 60.274 87.92 59.868 87.92 59.364C87.92 58.8507 87.7567 58.4447 87.43 58.146C87.1033 57.838 86.6647 57.684 86.114 57.684H83.23V61.03ZM83.23 56.228H86.016C86.464 56.228 86.8233 56.102 87.094 55.85C87.3647 55.5887 87.5 55.248 87.5 54.828C87.5 54.408 87.3647 54.0813 87.094 53.848C86.8233 53.6147 86.464 53.498 86.016 53.498H83.23V56.228ZM93.9734 62.668C93.2174 62.668 92.5454 62.4953 91.9574 62.15C91.3787 61.7953 90.926 61.3193 90.5994 60.722C90.2727 60.1153 90.1094 59.4387 90.1094 58.692C90.1094 57.9267 90.2727 57.25 90.5994 56.662C90.9354 56.074 91.3834 55.612 91.9434 55.276C92.5034 54.9307 93.138 54.758 93.8474 54.758C94.4167 54.758 94.9254 54.856 95.3734 55.052C95.8214 55.248 96.1994 55.5187 96.5074 55.864C96.8154 56.2 97.0487 56.5873 97.2074 57.026C97.3754 57.4647 97.4594 57.9313 97.4594 58.426C97.4594 58.5473 97.4547 58.6733 97.4454 58.804C97.436 58.9347 97.4174 59.056 97.3894 59.168H91.3554V57.908H96.4934L95.7374 58.482C95.8307 58.0247 95.798 57.6187 95.6394 57.264C95.49 56.9 95.2567 56.6153 94.9394 56.41C94.6314 56.1953 94.2674 56.088 93.8474 56.088C93.4274 56.088 93.054 56.1953 92.7274 56.41C92.4007 56.6153 92.1487 56.914 91.9714 57.306C91.794 57.6887 91.724 58.1553 91.7614 58.706C91.7147 59.2193 91.7847 59.6673 91.9714 60.05C92.1674 60.4327 92.438 60.7313 92.7834 60.946C93.138 61.1607 93.5394 61.268 93.9874 61.268C94.4447 61.268 94.832 61.1653 95.1494 60.96C95.476 60.7547 95.7327 60.4887 95.9194 60.162L97.2074 60.792C97.058 61.1467 96.8247 61.4687 96.5074 61.758C96.1994 62.038 95.826 62.262 95.3874 62.43C94.958 62.5887 94.4867 62.668 93.9734 62.668ZM98.3033 62.5V54.926H99.8153V56.41L99.6333 56.214C99.82 55.738 100.119 55.3787 100.529 55.136C100.94 54.884 101.416 54.758 101.957 54.758C102.517 54.758 103.012 54.8793 103.441 55.122C103.871 55.3647 104.207 55.7007 104.449 56.13C104.692 56.5593 104.813 57.054 104.813 57.614V62.5H103.245V58.034C103.245 57.6513 103.175 57.3293 103.035 57.068C102.895 56.7973 102.695 56.592 102.433 56.452C102.181 56.3027 101.892 56.228 101.565 56.228C101.239 56.228 100.945 56.3027 100.683 56.452C100.431 56.592 100.235 56.7973 100.095 57.068C99.9553 57.3387 99.8853 57.6607 99.8853 58.034V62.5H98.3033ZM109.362 62.668C108.606 62.668 107.934 62.4953 107.346 62.15C106.768 61.7953 106.315 61.3193 105.988 60.722C105.662 60.1153 105.498 59.4387 105.498 58.692C105.498 57.9267 105.662 57.25 105.988 56.662C106.324 56.074 106.772 55.612 107.332 55.276C107.892 54.9307 108.527 54.758 109.236 54.758C109.806 54.758 110.314 54.856 110.762 55.052C111.21 55.248 111.588 55.5187 111.896 55.864C112.204 56.2 112.438 56.5873 112.596 57.026C112.764 57.4647 112.848 57.9313 112.848 58.426C112.848 58.5473 112.844 58.6733 112.834 58.804C112.825 58.9347 112.806 59.056 112.778 59.168H106.744V57.908H111.882L111.126 58.482C111.22 58.0247 111.187 57.6187 111.028 57.264C110.879 56.9 110.646 56.6153 110.328 56.41C110.02 56.1953 109.656 56.088 109.236 56.088C108.816 56.088 108.443 56.1953 108.116 56.41C107.79 56.6153 107.538 56.914 107.36 57.306C107.183 57.6887 107.113 58.1553 107.15 58.706C107.104 59.2193 107.174 59.6673 107.36 60.05C107.556 60.4327 107.827 60.7313 108.172 60.946C108.527 61.1607 108.928 61.268 109.376 61.268C109.834 61.268 110.221 61.1653 110.538 60.96C110.865 60.7547 111.122 60.4887 111.308 60.162L112.596 60.792C112.447 61.1467 112.214 61.4687 111.896 61.758C111.588 62.038 111.215 62.262 110.776 62.43C110.347 62.5887 109.876 62.668 109.362 62.668ZM114.546 62.5V56.354H113.146V54.926H114.546V54.534C114.546 53.9647 114.663 53.4887 114.896 53.106C115.13 52.714 115.452 52.4153 115.862 52.21C116.282 52.0047 116.763 51.902 117.304 51.902C117.407 51.902 117.524 51.9113 117.654 51.93C117.785 51.9393 117.892 51.9533 117.976 51.972V53.344C117.902 53.3253 117.818 53.316 117.724 53.316C117.631 53.3067 117.556 53.302 117.5 53.302C117.08 53.302 116.744 53.4 116.492 53.596C116.24 53.7827 116.114 54.0953 116.114 54.534V54.926H119.74V56.354H116.114V62.5H114.546ZM118.998 62.5V54.926H120.566V62.5H118.998ZM124.813 62.584C124.02 62.584 123.404 62.36 122.965 61.912C122.527 61.464 122.307 60.834 122.307 60.022V56.354H120.977V54.926H121.187C121.542 54.926 121.817 54.8233 122.013 54.618C122.209 54.4127 122.307 54.1327 122.307 53.778V53.19H123.889V54.926H125.611V56.354H123.889V59.952C123.889 60.2133 123.931 60.4373 124.015 60.624C124.099 60.8013 124.235 60.9413 124.421 61.044C124.608 61.1373 124.851 61.184 125.149 61.184C125.224 61.184 125.308 61.1793 125.401 61.17C125.495 61.1607 125.583 61.1513 125.667 61.142V62.5C125.537 62.5187 125.392 62.5373 125.233 62.556C125.075 62.5747 124.935 62.584 124.813 62.584ZM129.311 62.668C128.536 62.668 127.855 62.4767 127.267 62.094C126.688 61.7113 126.282 61.198 126.049 60.554L127.267 59.98C127.472 60.4093 127.752 60.75 128.107 61.002C128.471 61.254 128.872 61.38 129.311 61.38C129.684 61.38 129.988 61.296 130.221 61.128C130.454 60.96 130.571 60.7313 130.571 60.442C130.571 60.2553 130.52 60.106 130.417 59.994C130.314 59.8727 130.184 59.7747 130.025 59.7C129.876 59.6253 129.722 59.5693 129.563 59.532L128.373 59.196C127.72 59.0093 127.23 58.7293 126.903 58.356C126.586 57.9733 126.427 57.53 126.427 57.026C126.427 56.5687 126.544 56.172 126.777 55.836C127.01 55.4907 127.332 55.2247 127.743 55.038C128.154 54.8513 128.616 54.758 129.129 54.758C129.82 54.758 130.436 54.9307 130.977 55.276C131.518 55.612 131.901 56.0833 132.125 56.69L130.907 57.264C130.758 56.9 130.52 56.6107 130.193 56.396C129.876 56.1813 129.516 56.074 129.115 56.074C128.77 56.074 128.494 56.158 128.289 56.326C128.084 56.4847 127.981 56.6947 127.981 56.956C127.981 57.1333 128.028 57.2827 128.121 57.404C128.214 57.516 128.336 57.6093 128.485 57.684C128.634 57.7493 128.788 57.8053 128.947 57.852L130.179 58.216C130.804 58.3933 131.285 58.6733 131.621 59.056C131.957 59.4293 132.125 59.8773 132.125 60.4C132.125 60.848 132.004 61.2447 131.761 61.59C131.528 61.926 131.201 62.192 130.781 62.388C130.361 62.5747 129.871 62.668 129.311 62.668Z" fill="white"/>
</g>
<rect x="35.75" y="35.75" width="119.5" height="41.5" rx="20.75" stroke="white" stroke-opacity="0.07" stroke-width="1.5" shape-rendering="crispEdges"/>
</g>
<defs>
<filter id="filter0_d_884_38" x="0" y="0" width="191" height="113" filterUnits="userSpaceOnUse" color-interpolation-filters="sRGB">
<feFlood flood-opacity="0" result="BackgroundImageFix"/>
<feColorMatrix in="SourceAlpha" type="matrix" values="0 0 0 0 0 0 0 0 0 0 0 0 0 0 0 0 0 0 127 0" result="hardAlpha"/>
<feOffset/>
<feGaussianBlur stdDeviation="17.5"/>
<feComposite in2="hardAlpha" operator="out"/>
<feColorMatrix type="matrix" values="0 0 0 0 0 0 0 0 0 0 0 0 0 0 0 0 0 0 0.15 0"/>
<feBlend mode="normal" in2="BackgroundImageFix" result="effect1_dropShadow_884_38"/>
<feBlend mode="normal" in="SourceGraphic" in2="effect1_dropShadow_884_38" result="shape"/>
</filter>
<filter id="filter1_f_884_38" x="31.0547" y="21.5" width="128.891" height="89.6875" filterUnits="userSpaceOnUse" color-interpolation-filters="sRGB">
<feFlood flood-opacity="0" result="BackgroundImageFix"/>
<feBlend mode="normal" in="SourceGraphic" in2="BackgroundImageFix" result="shape"/>
<feGaussianBlur stdDeviation="17.5" result="effect1_foregroundBlur_884_38"/>
</filter>
<filter id="filter2_f_884_38" x="-72.002" y="21.5" width="335.004" height="89.6152" filterUnits="userSpaceOnUse" color-interpolation-filters="sRGB">
<feFlood flood-opacity="0" result="BackgroundImageFix"/>
<feBlend mode="normal" in="SourceGraphic" in2="BackgroundImageFix" result="shape"/>
<feGaussianBlur stdDeviation="17.5" result="effect1_foregroundBlur_884_38"/>
</filter>
<clipPath id="clip0_884_38">
<rect x="36.5" y="36.5" width="118" height="40" rx="20" fill="white"/>
</clipPath>
<clipPath id="clip1_884_38">
<rect width="16" height="16" fill="white" transform="translate(58.5 48.5)"/>
</clipPath>
</defs>
</svg>
