<svg width="28" height="28" viewBox="0 0 28 28" fill="none" xmlns="http://www.w3.org/2000/svg">
<path d="M23.4875 23.1558L16.6406 12.3955L23.3967 4.96344C23.5495 4.7912 23.6283 4.56567 23.6159 4.33576C23.6036 4.10584 23.5011 3.89007 23.3307 3.73522C23.1603 3.58037 22.9357 3.49892 22.7057 3.50853C22.4756 3.51814 22.2586 3.61804 22.1017 3.78656L15.6661 10.8653L11.2375 3.90578C11.1586 3.78148 11.0495 3.67912 10.9204 3.60819C10.7914 3.53726 10.6465 3.50005 10.4992 3.5H5.24924C5.09236 3.49992 4.93834 3.54203 4.80331 3.62191C4.66828 3.70179 4.55721 3.8165 4.48173 3.95404C4.40626 4.09158 4.36915 4.24688 4.37429 4.40368C4.37943 4.56048 4.42664 4.71302 4.51096 4.84531L11.3578 15.6045L4.60174 23.042C4.52285 23.1268 4.46156 23.2263 4.42143 23.335C4.38129 23.4436 4.36312 23.5591 4.36795 23.6748C4.37278 23.7904 4.40053 23.904 4.44958 24.0089C4.49864 24.1138 4.56802 24.2079 4.65371 24.2858C4.7394 24.3637 4.83969 24.4237 4.94878 24.4626C5.05786 24.5014 5.17357 24.5182 5.28919 24.512C5.40482 24.5057 5.51805 24.4766 5.62234 24.4263C5.72663 24.376 5.8199 24.3055 5.89674 24.2189L12.3324 17.1402L16.761 24.0997C16.8406 24.223 16.9499 24.3243 17.0789 24.3942C17.208 24.4642 17.3525 24.5005 17.4992 24.5H22.7492C22.906 24.5 23.0598 24.4578 23.1947 24.378C23.3295 24.2982 23.4405 24.1836 23.5159 24.0462C23.5914 23.9089 23.6285 23.7538 23.6235 23.5971C23.6185 23.4405 23.5716 23.2881 23.4875 23.1558ZM17.9794 22.75L6.84284 5.25H10.0147L21.1556 22.75H17.9794Z" fill="url(#paint0_linear_885_71)"/>
<defs>
<linearGradient id="paint0_linear_885_71" x1="13.985" y1="3.5" x2="14.2633" y2="24.5098" gradientUnits="userSpaceOnUse">
<stop stop-color="#36B460"/>
<stop offset="1" stop-color="#049C20"/>
</linearGradient>
</defs>
</svg>
