<svg width="32" height="32" viewBox="0 0 32 32" fill="none" xmlns="http://www.w3.org/2000/svg">
<g clip-path="url(#clip0_1136_45)">
<mask id="mask0_1136_45" style="mask-type:luminance" maskUnits="userSpaceOnUse" x="0" y="0" width="32" height="32">
<path d="M32 0H0V32H32V0Z" fill="white"/>
</mask>
<g mask="url(#mask0_1136_45)">
<path d="M22.6949 28.3867L18.0549 26.0667C16.7616 25.4267 15.2549 25.4267 13.9616 26.0667L9.32151 28.3867C5.33484 30.3734 1.13484 26.0934 3.21484 22.1601L4.30818 20.1067C4.45484 19.8267 4.69484 19.6001 4.98818 19.4667L21.8415 11.8667C22.5348 11.5601 23.3482 11.8401 23.6949 12.5067L28.7749 22.1601C30.8549 26.0934 26.6682 30.3734 22.6949 28.3867Z" fill="#57BF7A"/>
<path d="M20.8006 10.2532L9.76059 15.2265C8.52059 15.7865 7.26726 14.4532 7.90726 13.2532L11.9606 5.55986C13.6806 2.2932 18.3473 2.2932 20.0673 5.55986L21.494 8.27986C21.8673 9.0132 21.5473 9.91986 20.8006 10.2532Z" fill="#57BF7A"/>
</g>
</g>
<defs>
<clipPath id="clip0_1136_45">
<rect width="32" height="32" fill="white"/>
</clipPath>
</defs>
</svg>
